<?xml version="1.0" ?><!DOCTYPE svg  PUBLIC '-//W3C//DTD SVG 1.1//EN'  'http://www.w3.org/Graphics/SVG/1.1/DTD/svg11.dtd'><svg enable-background="new 0 0 128 128" id="Слой_1" version="1.1" viewBox="0 0 128 128" xml:space="preserve" xmlns="http://www.w3.org/2000/svg" xmlns:xlink="http://www.w3.org/1999/xlink"><g><g><path d="M54.5,103.5c-2.5,0-4.5-2-4.5-4.5s2-4.5,4.5-4.5s4.5,2,4.5,4.5S57,103.5,54.5,103.5z M54.5,97.5    c-0.8,0-1.5,0.7-1.5,1.5s0.7,1.5,1.5,1.5S56,99.8,56,99S55.3,97.5,54.5,97.5z" fill="#46B8C4"/></g><g><path d="M67.5,100.5c-2.5,0-4.5-2-4.5-4.5s2-4.5,4.5-4.5s4.5,2,4.5,4.5S70,100.5,67.5,100.5z M67.5,94.5    c-0.8,0-1.5,0.7-1.5,1.5s0.7,1.5,1.5,1.5S69,96.8,69,96S68.3,94.5,67.5,94.5z" fill="#46B8C4"/></g><g><path d="M57.5,100.5c-0.8,0-1.5-0.7-1.5-1.5V84c0-0.7,0.5-1.3,1.2-1.5l13-3c0.4-0.1,0.9,0,1.3,0.3    c0.4,0.3,0.6,0.7,0.6,1.2v15c0,0.8-0.7,1.5-1.5,1.5S69,96.8,69,96V82.9l-10,2.3V99C59,99.8,58.3,100.5,57.5,100.5z" fill="#46B8C4"/></g><g><path d="M44.5,81.5c-2.5,0-4.5-2-4.5-4.5s2-4.5,4.5-4.5s4.5,2,4.5,4.5S47,81.5,44.5,81.5z M44.5,75.5    c-0.8,0-1.5,0.7-1.5,1.5s0.7,1.5,1.5,1.5S46,77.8,46,77S45.3,75.5,44.5,75.5z" fill="#46B8C4"/></g><g><path d="M41.5,91.5c-0.8,0-1.5-0.7-1.5-1.5V77c0-0.8,0.7-1.5,1.5-1.5S43,76.2,43,77v13    C43,90.8,42.3,91.5,41.5,91.5z" fill="#46B8C4"/></g><g><path d="M84.5,87.5c-2.5,0-4.5-2-4.5-4.5s2-4.5,4.5-4.5s4.5,2,4.5,4.5S87,87.5,84.5,87.5z M84.5,81.5    c-0.8,0-1.5,0.7-1.5,1.5s0.7,1.5,1.5,1.5S86,83.8,86,83S85.3,81.5,84.5,81.5z" fill="#46B8C4"/></g><g><path d="M87.5,84.5c-0.8,0-1.5-0.7-1.5-1.5V70c0-0.8,0.7-1.5,1.5-1.5h5c0.8,0,1.5,0.7,1.5,1.5s-0.7,1.5-1.5,1.5H89    V83C89,83.8,88.3,84.5,87.5,84.5z" fill="#46B8C4"/></g><g><path d="M58.5,77.5c-2.5,0-4.5-2-4.5-4.5s2-4.5,4.5-4.5s4.5,2,4.5,4.5S61,77.5,58.5,77.5z M58.5,71.5    c-0.8,0-1.5,0.7-1.5,1.5s0.7,1.5,1.5,1.5S60,73.8,60,73S59.3,71.5,58.5,71.5z" fill="#46B8C4"/></g><g><path d="M61.5,74.5c-0.8,0-1.5-0.7-1.5-1.5V60c0-0.8,0.7-1.5,1.5-1.5S63,59.2,63,60v13    C63,73.8,62.3,74.5,61.5,74.5z" fill="#46B8C4"/></g></g><g><g><path d="M29.1,114.8l-9.4-0.1L14.1,69l9.1-2.4c2.9-0.8,5.9,1.2,6.2,4.2l4.7,38.3C34.5,112.2,32.1,114.8,29.1,114.8    z" fill="#FCEFE4"/></g></g><g><g><g><path d="M27.5,67.2c0.4-0.1-1.5-1.3-4.3-0.5L14.1,69l5.6,45.7l1.5,0l-1.9-38.9c-0.1-1.7,0.7-3.4,2.1-4.4     L27.5,67.2z" fill="#FFFFFF"/></g></g></g><g><g><polygon fill="#F8F7FB" points="18.9,108.4 8.8,108.3 5.1,77.8 14.9,75.3   "/></g></g><g><g><polygon fill="#D4D3DA" points="18.9,108.4 8.8,108.3 5.1,77.8 14.9,75.3   "/></g></g><g><g><g><path d="M15,76.1l-0.1-0.8l-9.8,2.5l3.7,30.4l1.2,0.1L9.2,83.3c-0.1-1.6,0.6-3.1,1.9-4.1L15,76.1z" fill="#FFFFFF"/></g></g></g><g><g><path d="M98.9,114.8l9.4-0.1l5.6-45.7l-9.1-2.4c-2.9-0.8-5.9,1.2-6.2,4.2l-4.7,38.3    C93.5,112.2,95.9,114.8,98.9,114.8z" fill="#FCEFE4"/></g></g><g><g><g><path d="M95.8,113.4l6.8-38.5c0.4-3,3.3-5,6.2-4.2l4.8,1.2l0.4-2.9l-9.1-2.4c-2.9-0.8-5.9,1.2-6.2,4.2l-4.7,38.3     C93.5,111.8,95.7,113.9,95.8,113.4z" fill="#FFFFFF"/></g></g></g><g><g><polygon fill="#F8F7FB" points="109.1,108.4 119.2,108.3 122.9,77.8 113.1,75.3   "/></g></g><g><g><polygon fill="#D4D3DA" points="109.1,108.4 119.2,108.3 122.9,77.8 113.1,75.3   "/></g></g><g><g><g><path d="M122.8,78.9l0.1-1.1l-9.8-2.5l-4.1,33.1l1.4,0l4.9-25.3c0.4-2.2,2.3-3.9,4.6-4L122.8,78.9z" fill="#FFFFFF"/></g></g></g><g><g><g><path d="M12.6,114.9c0.1,0.8,0.8,1.4,1.6,1.3c0.8-0.1,1.4-0.8,1.3-1.6l-0.6-6.3l-3,0L12.6,114.9z" fill="#BEADBC"/></g></g><g><g><path d="M123.3,76.4l-4-1.1l1.3-13c0-0.5-0.2-1-0.6-1.3l-4.4-3.6C115.1,30.9,93.6,11.7,64,11.7     S12.9,30.9,12.5,57.5l-4.4,3.6c-0.4,0.3-0.6,0.8-0.6,1.3l1.3,13l-4,1.1C4,76.6,3.5,77.3,3.6,78l3.7,30.4c0.1,0.7,0.7,1.3,1.5,1.3     l8.8,0.1l0.6,5c0.1,0.7,0.7,1.3,1.5,1.3l9.4,0.1c0,0,0.1,0,0.1,0c1.9,0,3.6-0.8,4.9-2.2c1.2-1.4,1.8-3.3,1.6-5.1l-4.7-38.3     c-0.4-3.3-3.2-5.7-6.4-5.7c-0.6,0-1.1,0.1-1.6,0.2l-9.1,2.4c-0.7,0.2-1.2,0.9-1.1,1.6l0.6,5l-1.5,0.4l-1.1-11.7l4.4-3.5     c0.4-0.3,0.6-0.7,0.6-1.2c0-12.8,4.9-23.8,14.1-31.7c8.8-7.6,21-11.8,34.4-11.8s25.6,4.2,34.4,11.8c9.2,8,14.1,18.9,14.1,31.7     c0,0.5,0.2,0.9,0.6,1.2l4.4,3.5l-1.1,11.7l-1.5-0.4l0.6-5c0.1-0.7-0.4-1.4-1.1-1.6l-9.1-2.4c-0.5-0.1-1.1-0.2-1.6-0.2     c-3.3,0-6,2.5-6.4,5.7L92.4,109c-0.2,1.8,0.4,3.7,1.6,5.1c1.2,1.4,3,2.2,4.9,2.2c0,0,0.1,0,0.1,0l9.4-0.1c0.8,0,1.4-0.6,1.5-1.3     l0.6-5l2.5,0l-0.5,4.8c-0.1,0.8,0.5,1.6,1.3,1.6c0,0,0.1,0,0.1,0c0.8,0,1.4-0.6,1.5-1.4l0.5-5.1l3.3,0c0.8,0,1.4-0.6,1.5-1.3     l3.7-30.4C124.5,77.3,124,76.6,123.3,76.4z M23.6,68.1c0.3-0.1,0.6-0.1,0.9-0.1c1.8,0,3.3,1.3,3.5,3.1l4.7,38.3     c0.1,1-0.2,2-0.9,2.7c-0.7,0.8-1.6,1.2-2.6,1.2v1.5l0-1.5l-8.1-0.1l-0.6-4.8c0,0,0,0,0,0c0-0.1,0-0.3-0.1-0.4l-4-32.8l0,0l-0.6-5     L23.6,68.1z M13.6,77.2l3.6,29.7l-7.1-0.1L6.7,79L13.6,77.2z M98.9,113.3l0,1.5L98.9,113.3c-1,0-2-0.4-2.7-1.2     c-0.7-0.8-1-1.7-0.9-2.7l4.7-38.3c0.2-1.8,1.7-3.1,3.5-3.1c0.3,0,0.6,0,0.9,0.1l7.8,2l-0.6,5l0,0l-4.1,33.1c0,0,0,0,0,0l-0.6,5     L98.9,113.3z M117.8,106.8l-7.1,0.1l3.6-29.7l6.8,1.8L117.8,106.8z" fill="#BEADBC"/></g></g></g></svg>